<svg xmlns="http://www.w3.org/2000/svg" viewBox="0 0 800 300"><path d="M52 70c0-25 22-45 50-45h210c30 0 54 21 54 48v66c0 27-24 48-54 48H181l-55 50 10-50H102c-28 0-50-20-50-46z" fill="none" stroke="#FF8FA3" stroke-width="7" stroke-linejoin="round"/><path d="M466 102c17-47 100-48 120-5 47-14 96 11 100 52 5 51-53 85-115 70-30 35-96 36-126 0-59 13-107-17-105-65 1-41 50-68 126-52z" fill="none" stroke="#FFD166" stroke-width="7" stroke-linejoin="round"/><path d="M572 222l33 42-53-32" fill="none" stroke="#FFD166" stroke-width="7" stroke-linecap="round"/></svg>
