<svg xmlns="http://www.w3.org/2000/svg" viewBox="0 0 64 64" width="64" height="64" fill="none">
  <path d="M20 43.5c3.8 4.1 8.2 6.2 13.2 6.2 5.7 0 10.1-2.5 13.3-7.4" stroke="#5BB7B7" stroke-width="2" stroke-linecap="round"/>
  <path d="M16 33.5c5.7 4.3 11.7 6.5 18.1 6.5 5.4 0 10-1.3 13.9-3.8" stroke="#5BB7B7" stroke-width="2" stroke-linecap="round"/>
  <path d="M14 27.5c1.9-2.6 4.7-3.6 8.4-2.8l11.7 2.4c2.2.5 4.3-.1 6-1.6l6.6-5.8c1.8-1.6 4.5-1.4 6 .4 1.6 1.9 1.3 4.6-.6 6.2l-7.9 6.5c-3.1 2.5-6.9 3.5-10.8 2.8l-9.8-1.9" stroke="#5BB7B7" stroke-width="2" stroke-linecap="round" stroke-linejoin="round"/>
  <path d="M25.4 18.8 48.2 8.6c1.9-.8 4.1 0 4.9 1.9.8 1.8 0 4-1.8 4.9L29.1 25.8" stroke="#5BB7B7" stroke-width="2" stroke-linecap="round" stroke-linejoin="round"/>
  <path d="M47.8 8.8 56 4.9M50.1 14.5l8.2-3.8" stroke="#5BB7B7" stroke-width="2" stroke-linecap="round"/>
  <path d="M19.6 31.8 14 48.7c-.6 1.9.4 3.9 2.3 4.5 1.8.6 3.8-.4 4.5-2.2l3.9-11.7" stroke="#5BB7B7" stroke-width="2" stroke-linecap="round" stroke-linejoin="round"/>
</svg>
